<?xml version="1.0" encoding="utf-8"?>
<svg xmlns="http://www.w3.org/2000/svg" data-name="Layer 1" id="Layer_1" viewBox="0 0 1219.93 245.95">
  <defs>
    <style>
      .cls-1 {
        fill: #fff;
        stroke-width: 0px;
      }
    </style>
  </defs>
  <path class="cls-1" d="M206.99,2.48h-34.21l-34.8,34.8c-3.34-6.95-7.92-13.07-13.61-18.2C111.89,7.84,94.53,1.65,75.47,1.65,44.33,1.65,16.55,18.52,1.18,46.77l-.53.98,9.22,6.15.64-1.17C24.34,27.48,47.9,12.99,75.13,12.99c15.98,0,30.5,5.07,40.89,14.28,10.73,9.5,16.4,22.48,16.4,37.54,0,21.41-11.77,38.69-29.45,58.03L.11,235.98l-.11.13v8.19h206.99l103.8-103.8v-34.21L207.36,2.85l-.37-.37ZM144.1,64.81c0-3.18-.22-6.36-.66-9.46l14.04-14.04h16.71l54.43,54.43v16.71l-54.43,54.43h-16.71l-41.59-41.59c20.03-22.67,28.21-40.22,28.21-60.49ZM114.2,127.18l42.23,42.23h18.8l55.91-55.91v-18.8l-55.54-55.54-.37-.37h-17.45l1.51-1.51h18.42l59.75,59.76v18.42l-59.75,59.75h-18.42l-46.48-46.48c.47-.52.94-1.03,1.39-1.54ZM111.1,130.59l46.77,46.77.37.37h20.51l61.23-61.23v-20.51l-60.86-60.86-.37-.37h-19.16l1.51-1.51h20.13l65.07,65.08v20.13l-65.07,65.07h-20.13l-51.41-51.41,1.4-1.53ZM108,133.99l52.07,52.06h22.22l66.55-66.56v-22.22L182.29,30.72h-20.87l1.51-1.51h21.85l70.39,70.4v21.84l-70.39,70.4h-21.85l-56.33-56.33,1.4-1.53ZM104.89,137.39l56.99,56.98h23.94l71.87-71.88v-23.94L185.82,26.68h-22.58l1.51-1.51h23.56l75.71,75.72v23.56l-75.71,75.72h-23.56l-61.25-61.25,1.4-1.53ZM101.79,140.79l61.54,61.53.37.37h25.65l77.19-77.2v-25.65L189.72,23.02l-.37-.37h-24.3l1.51-1.51h25.27l81.03,81.04v25.27l-81.03,81.04h-25.27l-66.17-66.17,1.4-1.53ZM98.68,144.19l66.83,66.83h27.36l82.51-82.52v-27.36L193.24,18.99l-.37-.37h-26.01l1.51-1.51h26.98l86.35,86.36v26.98l-86.35,86.36h-26.98l-71.09-71.09,1.4-1.53ZM95.58,147.59l71.38,71.38.37.37h29.07l87.83-87.84v-29.07L196.4,14.58h-27.72l1.51-1.51h28.69l91.67,91.68v28.7l-91.67,91.68h-28.69l-76.01-76.01,1.4-1.53ZM92.47,150.99l76.44,76.43.24.24h30.79l93.15-93.16v-30.79L200.3,10.92l-.37-.37h-29.43l1.51-1.51h30.41l97,97v30.41l-97,97h-30.41l-80.93-80.93,1.4-1.53ZM16.99,233.65l69.27-75.86,75.86,75.86H16.99ZM308.26,139.45l-102.32,102.32h-32.12l-85.85-85.85,1.4-1.53,81.59,81.59h32.5l98.47-98.48v-32.5L203.83,6.89l-.37-.37h-31.15l1.51-1.51h32.12l102.32,102.32v32.12Z"/>
  <path class="cls-1" d="M432.44,27.8l-67.31-.02-.06,190.79,67.31.02c27.42,0,50.76-9.18,69.33-27.3,18.57-18.11,28.02-40.75,28.02-67.25v-.81c0-26.87-9.51-49.75-28.24-67.96-18.76-18.23-42-27.46-69.06-27.47ZM481.24,171.35c-12.5,12.78-28.93,19.25-48.85,19.24h-37.12s.04-134.82.04-134.82h37.12c19.73.02,36.11,6.41,48.69,19,12.58,12.59,18.97,28.89,18.96,48.44,0,19.17-6.34,35.36-18.84,48.13Z"/>
  <rect class="cls-1" height="190.23" width="30.47" x="559.32" y="28.11"/>
  <polygon class="cls-1" points="626.21 218.37 656.14 218.38 656.17 136.56 744.01 136.58 744.02 109.69 656.18 109.67 656.19 55.85 755.04 55.88 755.05 28.18 626.27 28.14 626.21 218.37"/>
  <path class="cls-1" d="M817.4,74.06c12.61-13.14,28.63-19.8,47.63-19.8,12.89,0,24.49,3.46,34.48,10.28,6.69,4.57,12.43,10.3,17.11,17.01l23.06-17.94c-6.32-8.45-13.93-15.79-22.61-21.86-15.22-10.64-32.74-16.03-52.01-16.03-26.7,0-49.75,9.59-68.49,28.52-2.85,2.87-5.62,6.02-8.24,9.35-13.3,16.98-20.06,36.98-20.07,59.43,0,22.62,6.85,42.71,20.35,59.74,2.55,3.2,5.14,6.11,7.91,8.9,18.76,18.85,41.78,28.42,68.48,28.43,19.3,0,36.8-5.33,52.04-15.87,8.58-5.94,16.09-13.12,22.33-21.37l-23.02-17.93c-4.57,6.71-10.25,12.3-16.88,16.66-9.8,6.43-21.4,9.71-34.46,9.7-19,0-35.01-6.68-47.62-19.85-1.84-1.91-3.62-4.05-5.62-6.71-8.83-11.86-13.33-25.88-13.32-41.69,0-15.78,4.34-29.74,12.86-41.51,2.15-2.96,4.08-5.32,6.11-7.46Z"/>
  <polygon class="cls-1" points="1219.93 113.66 1106.37 0 1106.36 31.91 1188.05 113.65 1219.93 113.66"/>
  <polygon class="cls-1" points="1087.63 31.91 1087.64 0 974 113.59 1005.89 113.6 1087.63 31.91"/>
  <polygon class="cls-1" points="974 132.3 1087.56 245.95 1087.57 214.04 1005.88 132.3 974 132.3"/>
  <polygon class="cls-1" points="1106.3 214.05 1106.29 245.95 1219.93 132.37 1188.04 132.36 1106.3 214.05"/>
  <polygon class="cls-1" points="1108.29 60.21 1096.98 48.88 1085.67 60.18 1085.64 183.54 1096.93 194.84 1108.26 183.52 1108.29 60.21"/>
  <polygon class="cls-1" points="1068.88 166.9 1068.9 76.93 1046.38 99.39 1046.37 144.23 1068.88 166.9"/>
  <polygon class="cls-1" points="1147.57 144.26 1147.58 99.42 1125.07 76.95 1125.04 166.92 1147.57 144.26"/>
</svg>